<?xml version="1.0" encoding="UTF-8" standalone="no"?><!DOCTYPE svg PUBLIC "-//W3C//DTD SVG 1.1//EN" "http://www.w3.org/Graphics/SVG/1.1/DTD/svg11.dtd"><svg width="100%" height="100%" viewBox="0 0 1103 487" version="1.1" xmlns="http://www.w3.org/2000/svg" xmlns:xlink="http://www.w3.org/1999/xlink" xml:space="preserve" xmlns:serif="http://www.serif.com/" style="fill-rule:evenodd;clip-rule:evenodd;stroke-linejoin:round;stroke-miterlimit:2;"><g><clipPath id="_clip1"><rect x="376.063" y="0" width="526.454" height="207.682"/></clipPath><g clip-path="url(#_clip1)"><path d="M376.063,207.964l199.436,-164.366l22.852,28.038l79.969,-71.636l224.371,187.891l-105.946,-60.2l2.061,59.158l-118.402,-147.504l23.893,69.661l-39.453,-25.955l43.62,113.151l-69.076,-43.598l-27.539,48.785l-23.872,-38.412l-55.078,36.35l40.517,-102.387l-66.493,41.124l3.146,-21.679l-134.006,91.579" style="fill:#f60;fill-rule:nonzero;"/></g></g><path d="M223.307,480.577l-223.307,0l0,-38.021l15.56,-1.475c9.071,-0.912 13.628,-5.295 13.628,-13.108l0,-218.489l-26.844,-1.389l-0,-39.931l215.321,0l-0,77.951l-47.96,3.299l-0,-18.75c-0,-5.317 -0.781,-9.071 -2.344,-11.285c-1.562,-2.192 -5.338,-3.298 -11.285,-3.298l-69.574,-0l-0,80.295l108.572,-0l-0,48.003l-108.572,0l-0,87.848l75.651,-0c5.664,-0 9.31,-1.172 10.872,-3.559c1.563,-2.366 2.344,-6.207 2.344,-11.546l-0,-23.437l47.938,3.299l0,83.593Z" style="fill-rule:nonzero;"/><path d="M341.71,145.595l0,296.007l26.823,1.388l-0,37.587l-111.849,0l0,-35.677l15.451,-1.476c9.072,-0.911 13.629,-5.924 13.629,-15.017l-0,-231.597c-0,-6.879 -3.906,-10.634 -11.719,-11.285l-16.406,-0.955l-0,-38.975l84.071,-0Z" style="fill-rule:nonzero;"/><path d="M515.647,237.261c23.502,0 42.144,5.729 55.946,17.188c13.759,11.415 20.66,27.43 20.66,48.09c-0,13.78 -2.995,25.933 -8.941,36.458c-5.903,10.482 -13.26,18.707 -22.049,24.653c-8.832,5.903 -19.466,10.742 -31.966,14.497c-21.029,6.25 -44.683,9.375 -70.964,9.375c0.912,16.623 6.077,30.013 15.452,40.191c9.44,10.199 23.85,15.277 43.251,15.277c19.466,0 38.867,-6.879 58.29,-20.659l17.881,38.021c-6.25,5.685 -16.818,11.501 -31.684,17.447c-14.908,5.903 -31.922,8.855 -51.085,8.855c-38.216,-0 -66.254,-10.547 -84.158,-31.684c-17.838,-21.116 -26.757,-50.131 -26.757,-87.066c-0,-36.98 10.199,-67.991 30.577,-93.056c20.377,-25.043 48.893,-37.587 85.547,-37.587Zm-21.441,107.292c11.458,-2.018 22.048,-6.532 31.792,-13.542c9.722,-7.053 14.584,-15.451 14.584,-25.173c-0,-19.098 -9.419,-28.646 -28.234,-28.646c-17.535,-0 -31.055,6.988 -40.473,20.92c-9.375,13.889 -14.54,30.556 -15.451,50c13.758,-0.347 26.367,-1.519 37.782,-3.559Z" style="fill-rule:nonzero;"/><path d="M768.099,244.293l99.175,-0l0,36.631l-14.583,0.955c-6.25,0.651 -10.504,4.406 -12.695,11.285l-60.612,187.413l-71.919,0l-65.842,-186.979c-1.562,-4.384 -3.212,-7.378 -4.948,-8.941c-1.736,-1.562 -4.644,-2.474 -8.68,-2.778l-13.629,-0.955l0,-36.631l110.46,-0l0,37.586l-28.645,1.389l48.372,154.601l0.955,-0l46.983,-154.601l-24.392,-1.389l-0,-37.586Z" style="fill-rule:nonzero;"/><path d="M894.032,405.838c0,-34.723 19.119,-63.195 57.4,-85.417c-31.662,-19.444 -47.504,-42.795 -47.504,-70.052c-0,-22.57 8.767,-41.276 26.324,-56.163c17.534,-14.866 41.037,-22.309 70.529,-22.309c29.449,-0 51.628,6.836 66.515,20.486c14.887,13.607 22.331,30.273 22.331,50c-0,25.065 -14.887,50.13 -44.64,75.173c38.216,22.223 57.313,49.48 57.313,81.771c0,24.718 -8.941,45.313 -26.823,61.806c-17.86,16.449 -44.574,24.653 -80.165,24.653c-35.568,-0 -61.328,-7.9 -77.3,-23.698c-15.994,-15.842 -23.98,-34.592 -23.98,-56.25Zm101.107,37.152c14.692,0 26.172,-3.754 34.462,-11.284c8.355,-7.509 12.521,-17.709 12.521,-30.556c0,-12.847 -4.405,-23.546 -13.216,-32.118c-8.745,-8.615 -21.745,-17.318 -38.997,-26.128c-13.151,8.81 -23.242,17.665 -30.295,26.562c-7.032,8.919 -10.525,19.423 -10.525,31.511c-0,12.044 3.993,22.048 12,30.034c7.987,7.986 19.315,11.979 34.05,11.979Zm42.296,-198.263c-0,-10.005 -3.689,-17.991 -11.046,-23.959c-7.357,-5.946 -16.754,-8.941 -28.212,-8.941c-11.437,0 -20.898,3.386 -28.407,10.157c-7.53,6.727 -11.285,15.082 -11.285,25.086c0,18.815 14.866,35.742 44.64,50.782c9.375,-6.294 17.404,-14.237 24.132,-23.785c6.792,-9.549 10.178,-19.314 10.178,-29.34Z" style="fill:#f60;fill-rule:nonzero;"/></svg>